<svg width="42" height="43" viewBox="0 0 42 43" fill="none" xmlns="http://www.w3.org/2000/svg">
<path opacity="0.25" d="M26 43H0V18L18 0L27 2V4L29 2L38 0V7L37 8H42L42 16H41V28L26 43Z" fill="white"/>
<path d="M14 16H15V28H27V8H14V16Z" fill="white"/>
<path d="M29.0002 8V28H41.0003V16H42.0003V8H29.0002Z" fill="white"/>
<path fill-rule="evenodd" clip-rule="evenodd" d="M27 2L18 0V7H27V2ZM24.9999 3.99989L19.9999 2.99989V4.99988H24.9999V3.99989Z" fill="white"/>
<path fill-rule="evenodd" clip-rule="evenodd" d="M29 2L38 0V7H29V2ZM31.0001 3.99989L36.0001 2.99989V4.99988H31.0001V3.99989Z" fill="white"/>
</svg>
