<svg width="37" height="48" viewBox="0 0 37 48" fill="none" xmlns="http://www.w3.org/2000/svg">
<path opacity="0.25" d="M33 34.0001V40.0001L25 48.0001H0V23.0001L24.4667 1.4668L31.5333 8.53346L27.6 12.0001H33V14.0001L35 12.0001H37V30.0001L33 34.0001Z" fill="white"/>
<path d="M37 12H35V30H37V12Z" fill="white"/>
<path d="M21 12H19V30H21V12Z" fill="white"/>
<path d="M23 12V40H26V27H30V40H33V12H23Z" fill="white"/>
<path d="M28 10C30.7614 10 33 7.76142 33 5C33 2.23858 30.7614 0 28 0C25.2386 0 23 2.23858 23 5C23 7.76142 25.2386 10 28 10Z" fill="white"/>
</svg>
