<svg width="43" height="38" viewBox="0 0 43 38" fill="none" xmlns="http://www.w3.org/2000/svg">
<path opacity="0.25" d="M43 6.00001H39L41 4.00001C41 4.00001 41.0111 7.36117e-06 41 7.36117e-06H13L0 13V38H23C23 38 41 20.0111 41 20V16L43 14V6.00001Z" fill="white"/>
<path d="M27.9998 15.9999H40.9998V19.9999C40.9998 20.0111 12.9998 19.9999 12.9998 19.9999V-4.80493e-05H40.9998C41.0109 -4.80493e-05 40.9998 3.99995 40.9998 3.99995H27.9998V15.9999Z" fill="white"/>
<path d="M29.9995 14V6H42.9995V14H29.9995ZM35.9995 8C34.8995 8 33.9995 8.9 33.9995 10C33.9995 11.1 34.8995 12 35.9995 12C37.0995 12 37.9995 11.1 37.9995 10C37.9995 8.88889 37.0995 8 35.9995 8Z" fill="white"/>
</svg>
