<svg width="500" height="300" viewBox="0 0 500 300" fill="none" xmlns="http://www.w3.org/2000/svg">
<path opacity="0.25" d="M138 217H112V192L130 174L139 176V178L141 176L150 174V181L149 182H154L154 190H153V202L138 217Z" fill="white"/>
<path d="M126 190H127V202H139V182H126V190Z" fill="white"/>
<path d="M141 182V202H153V190H154V182H141Z" fill="white"/>
<path fill-rule="evenodd" clip-rule="evenodd" d="M139 176L130 174V181H139V176ZM137 178L132 177V179H137V178Z" fill="white"/>
<path fill-rule="evenodd" clip-rule="evenodd" d="M141 176L150 174V181H141V176ZM143 178L148 177V179H143V178Z" fill="white"/>
<path opacity="0.25" d="M66 185H62L64 183C64 183 64.0111 179 64 179H36L23 192V217H46C46 217 64 199.011 64 199V195L66 193V185Z" fill="white"/>
<path d="M50.9998 195H63.9998V199C63.9998 199.011 35.9998 199 35.9998 199V179H63.9998C64.0109 179 63.9998 183 63.9998 183H50.9998V195Z" fill="white"/>
<path d="M52.9995 193V185H65.9995V193H52.9995ZM58.9995 187C57.8995 187 56.9995 187.9 56.9995 189C56.9995 190.1 57.8995 191 58.9995 191C60.0995 191 60.9995 190.1 60.9995 189C60.9995 187.889 60.0995 187 58.9995 187Z" fill="white"/>
<path opacity="0.25" d="M56 118V124L48 132H23V107L47.4667 85.4668L54.5333 92.5335L50.6 96.0001H56V98.0001L58 96.0001H60V114L56 118Z" fill="white"/>
<path d="M60 96H58V114H60V96Z" fill="white"/>
<path d="M44 96H42V114H44V96Z" fill="white"/>
<path d="M46 96V124H49V111H53V124H56V96H46Z" fill="white"/>
<path d="M51 94C53.7614 94 56 91.7614 56 89C56 86.2386 53.7614 84 51 84C48.2386 84 46 86.2386 46 89C46 91.7614 48.2386 94 51 94Z" fill="white"/>
<path d="M43.0002 155.485L51.4855 163.971L59.9708 155.485" stroke="white" stroke-width="2"/>
<path d="M51.4856 147L51.4856 163" stroke="white" stroke-width="2"/>
<path d="M97 196L81 196" stroke="white" stroke-width="2"/>
<path d="M89 188L89 204" stroke="white" stroke-width="2"/>
<path opacity="0.25" d="M299 217H273V192L291 174L300 176V178L302 176L311 174V181L310 182H315L315 190H314V202L299 217Z" fill="white"/>
<path d="M287 190H288V202H300V182H287V190Z" fill="white"/>
<path d="M302 182V202H314V190H315V182H302Z" fill="white"/>
<path fill-rule="evenodd" clip-rule="evenodd" d="M300 176L291 174V181H300V176ZM298 178L293 177V179H298V178Z" fill="white"/>
<path fill-rule="evenodd" clip-rule="evenodd" d="M302 176L311 174V181H302V176ZM304 178L309 177V179H304V178Z" fill="white"/>
<path opacity="0.25" d="M227 185H223L225 183C225 183 225.011 179 225 179H197L184 192V217H207C207 217 225 199.011 225 199V195L227 193V185Z" fill="white"/>
<path d="M212 195H225V199C225 199.011 197 199 197 199V179H225C225.011 179 225 183 225 183H212V195Z" fill="white"/>
<path d="M214 193V185H227V193H214ZM220 187C218.9 187 218 187.9 218 189C218 190.1 218.9 191 220 191C221.1 191 222 190.1 222 189C222 187.889 221.1 187 220 187Z" fill="white"/>
<path opacity="0.25" d="M217 118V124L209 132H184V107L208.467 85.4668L215.533 92.5335L211.6 96.0001H217V98.0001L219 96.0001H221V114L217 118Z" fill="white"/>
<path d="M221 96H219V114H221V96Z" fill="white"/>
<path d="M205 96H203V114H205V96Z" fill="white"/>
<path d="M207 96V124H210V111H214V124H217V96H207Z" fill="white"/>
<path d="M212 94C214.761 94 217 91.7614 217 89C217 86.2386 214.761 84 212 84C209.239 84 207 86.2386 207 89C207 91.7614 209.239 94 212 94Z" fill="white"/>
<path d="M204 155.485L212.486 163.971L220.971 155.485" stroke="white" stroke-width="2"/>
<path d="M212.486 147L212.486 163" stroke="white" stroke-width="2"/>
<path d="M258 196L242 196" stroke="white" stroke-width="2"/>
<path d="M250 188L250 204" stroke="white" stroke-width="2"/>
<path opacity="0.25" d="M460 217H434V192L452 174L461 176V178L463 176L472 174V181L471 182H476L476 190H475V202L460 217Z" fill="white"/>
<path d="M448 190H449V202H461V182H448V190Z" fill="white"/>
<path d="M463 182V202H475V190H476V182H463Z" fill="white"/>
<path fill-rule="evenodd" clip-rule="evenodd" d="M461 176L452 174V181H461V176ZM459 178L454 177V179H459V178Z" fill="white"/>
<path fill-rule="evenodd" clip-rule="evenodd" d="M463 176L472 174V181H463V176ZM465 178L470 177V179H465V178Z" fill="white"/>
<path opacity="0.25" d="M388 185H384L386 183C386 183 386.011 179 386 179H358L345 192V217H368C368 217 386 199.011 386 199V195L388 193V185Z" fill="white"/>
<path d="M373 195H386V199C386 199.011 358 199 358 199V179H386C386.011 179 386 183 386 183H373V195Z" fill="white"/>
<path d="M375 193V185H388V193H375ZM381 187C379.9 187 379 187.9 379 189C379 190.1 379.9 191 381 191C382.1 191 383 190.1 383 189C383 187.889 382.1 187 381 187Z" fill="white"/>
<path opacity="0.25" d="M378 118V124L370 132H345V107L369.467 85.4668L376.533 92.5335L372.6 96.0001H378V98.0001L380 96.0001H382V114L378 118Z" fill="white"/>
<path d="M382 96H380V114H382V96Z" fill="white"/>
<path d="M366 96H364V114H366V96Z" fill="white"/>
<path d="M368 96V124H371V111H375V124H378V96H368Z" fill="white"/>
<path d="M373 94C375.761 94 378 91.7614 378 89C378 86.2386 375.761 84 373 84C370.239 84 368 86.2386 368 89C368 91.7614 370.239 94 373 94Z" fill="white"/>
<path d="M365 155.485L373.486 163.971L381.971 155.485" stroke="white" stroke-width="2"/>
<path d="M373.486 147L373.486 163" stroke="white" stroke-width="2"/>
<path d="M419 196L403 196" stroke="white" stroke-width="2"/>
<path d="M411 188L411 204" stroke="white" stroke-width="2"/>
</svg>
