<svg width="46" height="38" viewBox="0 0 46 38" fill="none" xmlns="http://www.w3.org/2000/svg">
<path opacity="0.25" d="M43 8C43 8 43.0111 7.62939e-06 43 7.62939e-06H10L0 10V38H24C24 38 46 16.0111 46 16V8H43Z" fill="white"/>
<path d="M17.5 19.9995C19.433 19.9995 21 18.4325 21 16.4995C21 14.5665 19.433 12.9995 17.5 12.9995C15.567 12.9995 14 14.5665 14 16.4995C14 18.4325 15.567 19.9995 17.5 19.9995Z" fill="white"/>
<path d="M34.5 19.9995C36.433 19.9995 38 18.4325 38 16.4995C38 14.5665 36.433 12.9995 34.5 12.9995C32.567 12.9995 31 14.5665 31 16.4995C31 18.4325 32.567 19.9995 34.5 19.9995Z" fill="white"/>
<path fill-rule="evenodd" clip-rule="evenodd" d="M12.0224 15.9994C12.2752 13.1964 14.6311 10.9998 17.5 10.9998C20.3688 10.9998 22.7247 13.1964 22.9775 15.9994C25.0103 15.9994 27.0804 15.9994 29.0225 15.9994C29.2753 13.1964 31.6312 10.9998 34.5 10.9998C37.3689 10.9998 39.7248 13.1964 39.9776 15.9994L46 15.9995V7.99979H43C43 7.99979 43.0111 -5.43594e-05 43 -5.43594e-05L10 -9.91821e-05V15.9994C10 15.9994 10.7559 15.9994 12.0224 15.9994Z" fill="white"/>
</svg>
