<svg width="46" height="37" viewBox="0 0 46 37" fill="none" xmlns="http://www.w3.org/2000/svg">
<path opacity="0.25" d="M27 37H0V10L10 4.0323e-06H46V18L27 37Z" fill="white"/>
<path d="M38.422 5H17.5775C17.0775 6.15556 16.1442 7.07777 14.9998 7.57777V10.4111C16.1553 10.9111 17.0775 11.8445 17.5775 12.9889H38.4109C38.9109 11.8333 39.8442 10.9111 40.9886 10.4111V7.57777C39.8442 7.07777 38.922 6.15556 38.422 5ZM27.9998 11C26.8998 11 25.9998 10.1 25.9998 9C25.9998 7.9 26.8998 7 27.9998 7C29.0998 7 29.9998 7.9 29.9998 9C29.9998 10.1111 29.0998 11 27.9998 11Z" fill="white"/>
<path d="M10 0V18H46V0H10ZM43 12C42.2333 12 41.5333 12.2889 41 12.7667C40.9111 12.8444 40.8333 12.9222 40.7667 13C40.2889 13.5333 40 14.2333 40 15H16C16 14.2333 15.7111 13.5333 15.2333 13C15.1556 12.9111 15.0778 12.8333 15 12.7667C14.4667 12.2889 13.7667 12 13 12V6C13.7667 6 14.4667 5.71111 15 5.23333C15.0889 5.15555 15.1667 5.07778 15.2333 5C15.7111 4.46666 16 3.76666 16 3H40C40 3.76666 40.2889 4.46666 40.7667 5C40.8444 5.08889 40.9222 5.16666 41 5.23333C41.5333 5.71111 42.2333 6 43 6V12Z" fill="white"/>
</svg>
