<svg width="43" height="38" viewBox="0 0 43 38" fill="none" xmlns="http://www.w3.org/2000/svg">
<path opacity="0.25" d="M43 6.00001H39L41 4.00001C41 4.00001 41.0111 7.36117e-06 41 7.36117e-06H13L0 13V38H23C23 38 41 20.0111 41 20V16L43 14V6.00001Z" fill="white"/>
<path d="M28 15.9999H41V19.9999C41 20.0111 13 19.9999 13 19.9999V-4.80493e-05H41C41.0112 -4.80493e-05 41 3.99995 41 3.99995H28V15.9999Z" fill="white"/>
<path d="M29.9998 14V6H42.9998V14H29.9998ZM35.9998 8C34.8998 8 33.9998 8.9 33.9998 10C33.9998 11.1 34.8998 12 35.9998 12C37.0998 12 37.9998 11.1 37.9998 10C37.9998 8.88889 37.0998 8 35.9998 8Z" fill="white"/>
</svg>
