<svg width="500" height="300" viewBox="0 0 500 300" fill="none" xmlns="http://www.w3.org/2000/svg">
<rect width="500" height="300" fill="#FB7D7D"/>
<path opacity="0.25" d="M108 241.5L108 255L96 267H67V249L95 223L110 237L108 239L108 241.5Z" fill="white"/>
<path d="M82.0005 239V255H93.0005V248.333H97.0005V255H108V239H82.0005Z" fill="white"/>
<path d="M95.0005 223L80.0005 237H110.001L95.0005 223Z" fill="white"/>
<path opacity="0.25" d="M433 238V250L416 267H387V237L397 227H400L400 238H433Z" fill="white"/>
<path d="M397 250L400 250L400 242L431 242L431 250L433 250L433 238L400 238L400 227L397 227L397 250Z" fill="white"/>
<path opacity="0.25" d="M189 237V241L163 267H147V250L161 237L173 225H177V237H189Z" fill="white"/>
<path d="M172.999 225L172.999 253H176.999L176.999 225H172.999Z" fill="white"/>
<path d="M189 237L161 237L161 241L189 241L189 237Z" fill="white"/>
<path opacity="0.25" d="M270 237C270 237 270.011 229 270 229H237L227 239V267H251C251 267 273 245.011 273 245V237H270Z" fill="white"/>
<path d="M244.5 249C246.433 249 248 247.433 248 245.5C248 243.567 246.433 242 244.5 242C242.567 242 241 243.567 241 245.5C241 247.433 242.567 249 244.5 249Z" fill="white"/>
<path d="M261.5 249C263.433 249 265 247.433 265 245.5C265 243.567 263.433 242 261.5 242C259.567 242 258 243.567 258 245.5C258 247.433 259.567 249 261.5 249Z" fill="white"/>
<path fill-rule="evenodd" clip-rule="evenodd" d="M239.022 244.999C239.275 242.196 241.631 240 244.5 240C247.369 240 249.725 242.196 249.977 244.999C252.01 244.999 254.08 244.999 256.022 244.999C256.275 242.196 258.631 240 261.5 240C264.369 240 266.725 242.196 266.978 244.999L273 245V237H270C270 237 270.011 229 270 229L237 229V244.999C237 244.999 237.756 244.999 239.022 244.999Z" fill="white"/>
<path opacity="0.25" d="M334 267H307V240L317 230H353V248L334 267Z" fill="white"/>
<path d="M345.422 235H324.578C324.078 236.156 323.144 237.078 322 237.578V240.411C323.155 240.911 324.078 241.844 324.578 242.989H345.411C345.911 241.833 346.844 240.911 347.989 240.411V237.578C346.844 237.078 345.922 236.156 345.422 235ZM335 241C333.9 241 333 240.1 333 239C333 237.9 333.9 237 335 237C336.1 237 337 237.9 337 239C337 240.111 336.1 241 335 241Z" fill="white"/>
<path d="M317 230V248H353V230H317ZM350 242C349.233 242 348.533 242.289 348 242.767C347.911 242.844 347.833 242.922 347.767 243C347.289 243.533 347 244.233 347 245H323C323 244.233 322.711 243.533 322.233 243C322.156 242.911 322.078 242.833 322 242.767C321.467 242.289 320.767 242 320 242V236C320.767 236 321.467 235.711 322 235.233C322.089 235.156 322.167 235.078 322.233 235C322.711 234.467 323 233.767 323 233H347C347 233.767 347.289 234.467 347.767 235C347.844 235.089 347.922 235.167 348 235.233C348.533 235.711 349.233 236 350 236V242Z" fill="white"/>
<path d="M139 239L123 239" stroke="white" stroke-width="2"/>
<path d="M131 231L131 247" stroke="white" stroke-width="2"/>
<path d="M219 239L203 239" stroke="white" stroke-width="2"/>
<path d="M211 231L211 247" stroke="white" stroke-width="2"/>
<path d="M299 239L283 239" stroke="white" stroke-width="2"/>
<path d="M291 231L291 247" stroke="white" stroke-width="2"/>
<path d="M379 239L363 239" stroke="white" stroke-width="2"/>
<path d="M371 231L371 247" stroke="white" stroke-width="2"/>
<path d="M247 202.485L255.486 210.971L263.971 202.485" stroke="white" stroke-width="2"/>
<path d="M255.485 194L255.485 210" stroke="white" stroke-width="2"/>
<path opacity="0.25" d="M249 174H227V149L245 131L254 133V135L256 133L265 131V138L264 139H269L269 147H268V159L249 174Z" fill="white"/>
<path d="M241 147H242V159H254V139H241V147Z" fill="white"/>
<path d="M256 139V159H268V147H269V139H256Z" fill="white"/>
<path fill-rule="evenodd" clip-rule="evenodd" d="M254 133L245 131V138H254V133ZM252 135L247 134V136H252V135Z" fill="white"/>
<path fill-rule="evenodd" clip-rule="evenodd" d="M256 133L265 131V138H256V133ZM258 135L263 134V136H258V135Z" fill="white"/>
<path d="M219 147L203 147" stroke="white" stroke-width="2"/>
<path d="M211 139L211 155" stroke="white" stroke-width="2"/>
<path opacity="0.25" d="M190 142H186L188 140C188 140 188.011 136 188 136H160L147 149V174H170C170 174 188 156.011 188 156V152L190 150V142Z" fill="white"/>
<path d="M175 152H188V156C188 156.011 160 156 160 156V136H188C188.011 136 188 140 188 140H175V152Z" fill="white"/>
<path d="M177 150V142H190V150H177ZM183 144C181.9 144 181 144.9 181 146C181 147.1 181.9 148 183 148C184.1 148 185 147.1 185 146C185 144.889 184.1 144 183 144Z" fill="white"/>
<path d="M167 108.485L175.486 116.971L183.971 108.485" stroke="white" stroke-width="2"/>
<path d="M175.485 100L175.485 116" stroke="white" stroke-width="2"/>
<path opacity="0.25" d="M180 67.0001V73.0001L172 81.0001H147V56.0001L171.467 34.4668L178.533 41.5335L174.6 45.0001H180V47.0001L182 45.0001H184V63.0001L180 67.0001Z" fill="white"/>
<path d="M184 45H182V63H184V45Z" fill="white"/>
<path d="M168 45H166V63H168V45Z" fill="white"/>
<path d="M170 45V73H173V60H177V73H180V45H170Z" fill="white"/>
<path d="M175 43C177.761 43 180 40.7614 180 38C180 35.2386 177.761 33 175 33C172.239 33 170 35.2386 170 38C170 40.7614 172.239 43 175 43Z" fill="white"/>
</svg>
